<svg version="1.2" xmlns="http://www.w3.org/2000/svg" viewBox="0 0 1536 1024" width="1536" height="1024">
	<style>
		.s0 { fill: #dd5454 } 
	</style>
	<path id="icon vector" class="s0" d="m309.75 367.73c-2.07 0.27-7.47 1.16-12 1.96-4.54 0.81-10.73 2.18-13.75 3.04-3.02 0.87-9.1 3.2-13.5 5.18-4.4 1.98-10.7 5.13-14 7.01-3.3 1.88-7.78 4.81-9.97 6.5-2.18 1.69-6.53 5.33-9.67 8.08-3.13 2.75-8.34 8.15-11.56 12-3.23 3.85-8.44 11.27-11.58 16.5-3.14 5.23-7.03 12.87-8.65 17-1.63 4.12-3.98 11.55-5.23 16.5-1.99 7.91-3.68 11.07-3.71 29.52-0.03 19.73 1.53 22.08 4.07 31.48 1.48 5.5 4.41 14.27 6.52 19.5 2.1 5.23 6.06 13.25 8.8 17.83 2.74 4.59 8.38 12.24 12.53 17 4.15 4.77 10.9 11.43 15 14.8 4.1 3.38 10.83 8.13 14.95 10.57 4.13 2.44 11.77 6.27 17 8.52 5.23 2.24 13.32 5.11 18 6.37 7.32 1.98 10.73 3.41 25.81 3.43 10.86 0.01 19.97-1.6 23.69-2.42 3.3-0.72 9.49-2.39 13.75-3.71 4.26-1.31 7.94-2.73 8.17-3.14 0.23-0.41-0.39-3.23-1.38-6.25-1.34-4.07-1.58-6.41-0.93-9 0.48-1.92 1.67-4.33 2.64-5.35 0.96-1.02 3.55-2.91 5.75-4.2 2.2-1.29 6.7-3.04 10-3.89 4.64-1.19 6.91-1.3 10-0.49 2.2 0.58 4.79 1.25 5.75 1.49 1.28 0.32 1.75-0.17 1.76-1.81 0.01-1.24-1.09-4.5-2.43-7.25-1.35-2.75-4.96-7.36-8.02-10.25-3.06-2.89-7.47-6.11-9.81-7.17-2.34-1.05-6.39-2.18-9-2.5-3.44-0.42-4.76-0.23-4.78 0.67-0.02 0.69 0.93 2.15 2.1 3.25 1.18 1.1 2.77 3.24 3.53 4.75 0.77 1.51 1.4 4.55 1.4 6.75 0 3.15-0.69 4.72-3.25 7.38-2.5 2.61-4.4 3.55-8.25 4.1-3.89 0.56-5.87 0.31-8.9-1.13-2.64-1.25-5.19-3.79-7.9-7.85-2.2-3.3-5.17-7-6.6-8.23-1.43-1.23-4.29-2.69-6.35-3.25-2.52-0.69-5.06-0.69-7.75-0.02-2.29 0.57-4.43 1.86-5 3-0.55 1.1-0.99 3.69-0.97 5.75 0.03 3.05 0.77 4.45 4 7.5l3.97 3.75c-5.81-2.37-8.62-3.86-10-4.85-1.37-0.99-4.16-4.24-6.18-7.22-2.03-2.99-4.17-5.54-4.75-5.68-0.59-0.14-1.07 1.1-1.07 2.75 0 1.65 0.9 4.8 2 7 1.1 2.2 1.55 4 1 4-0.55 0-1.85-1.24-2.89-2.75-1.04-1.51-2.39-4.66-3-7-0.81-3.11-0.81-5.39 0.01-8.5 0.67-2.58 2.59-5.72 4.88-8 3.49-3.48 4.19-3.75 9.63-3.75 3.58 0 8.3 0.88 12.1 2.25 5.94 2.15 6.3 2.17 8 0.49 1.6-1.59 1.65-2.34 0.51-8-0.7-3.51-2.45-7.94-4-10.13-1.51-2.14-5.44-6.37-8.74-9.4-3.3-3.02-8.25-6.78-11-8.35-2.75-1.56-7.48-3.62-10.5-4.57-4.3-1.34-8.6-1.67-19.75-1.5-12.27 0.18-14.77-0.05-18-1.68-2.06-1.05-4.65-2.91-5.75-4.15-1.1-1.24-4.25-3.24-7-4.45-2.75-1.21-6.05-3.51-7.33-5.1-1.88-2.35-2.26-3.87-2-7.91l0.33-5c-5.7-0.55-7.65-0.09-8.75 0.91-0.96 0.87-1.75 2.49-1.75 3.59 0 1.1-0.34 2.01-0.75 2.02-0.41 0.01-2.24-1.45-4.06-3.25-2.01-1.98-3.19-4.05-3-5.24 0.23-1.46 1.85-2.41 6.31-3.67 3.3-0.94 10.05-2.83 15-4.21 4.95-1.37 16.76-6.13 26.25-10.57 9.49-4.45 20.74-9.25 25-10.68 4.26-1.43 12.7-3.29 18.75-4.14l11-1.54c0.31-12.12 0.81-13.87 3.17-17.13 1.56-2.15 4.63-4.82 6.83-5.94 2.2-1.11 5.8-2.23 8-2.49 3.14-0.36 4.48 0 6.25 1.69 1.24 1.18 2.26 2.49 2.26 2.9 0.01 0.41-1.45 2.94-3.25 5.61-1.79 2.68-4.73 7.18-6.52 10-1.79 2.83-3.26 5.93-3.25 6.89 0.01 1.21 0.55 1.58 1.76 1.2 0.96-0.3 4.68-3.03 8.25-6.07 3.57-3.03 9.88-7.77 14-10.52 4.13-2.75 8.63-5.26 10-5.58 1.63-0.37 4.03 0.26 6.88 1.82 2.4 1.32 4.99 3.64 5.75 5.15 0.75 1.51 1.37 4.89 1.36 7.5-0.01 3.36-0.84 6.21-2.84 9.75-1.56 2.75-4.82 6.63-7.24 8.62-2.43 1.99-6.99 5.36-10.14 7.5-3.15 2.13-5.57 4.11-5.37 4.38 0.21 0.27 3.01 1.12 6.24 1.88 3.22 0.76 9.91 2.92 14.86 4.8 4.95 1.88 13.27 5.85 18.5 8.82 5.23 2.97 13.77 8.98 19 13.35 5.23 4.38 11.76 10.59 14.53 13.81 2.77 3.21 7.04 8.64 9.5 12.06 2.46 3.42 4.81 6.23 5.22 6.25 0.41 0.02 0.98-1.43 1.27-3.22 0.28-1.79 0.52-10.67 0.52-19.75-0.01-9.08-0.42-18.98-0.93-22-0.51-3.02-1.86-9.1-2.99-13.5-1.14-4.4-3.46-11.6-5.15-16-1.7-4.4-5.15-11.83-7.67-16.5-2.51-4.68-6.24-10.98-8.28-14-2.04-3.02-7.71-9.72-12.61-14.89-4.9-5.16-12.34-12.13-16.54-15.5-4.19-3.36-12.07-8.44-17.5-11.29-5.43-2.85-13.47-6.38-17.87-7.85-4.4-1.46-12.05-3.49-17-4.49-4.95-1.01-13.73-2.04-19.5-2.29-5.77-0.25-12.19-0.23-14.25 0.04z"/>
</svg>