<svg version="1.2" xmlns="http://www.w3.org/2000/svg" viewBox="0 0 1536 1024" width="1536" height="1024">
	<style>
		.s0 { fill: #1e3a8a } 
		.s1 { fill: #dd5454 } 
	</style>
	<path id="coderat vector" fill-rule="evenodd" class="s0" d="m822.44 394c4.3 0.01 7 0.59 9.31 2 2.62 1.61 3.36 2.82 3.8 6.25 0.31 2.34 0.64 28.1 0.95 110.25l-2.45 7c-1.35 3.85-4.27 9.67-6.5 12.93-2.23 3.26-6.58 8.21-9.67 11-3.09 2.79-8.04 6.26-11 7.71-2.96 1.45-7.63 3.46-10.38 4.46-3.94 1.43-7.86 1.8-18.5 1.75-11.73-0.05-14.55-0.4-21.5-2.66-4.4-1.43-10.7-4.47-14-6.75-3.3-2.28-7.48-5.56-9.3-7.29-1.81-1.73-5.06-5.85-7.21-9.15-2.15-3.3-4.87-8.7-6.03-12-1.33-3.78-2.33-9.7-2.69-16-0.36-6.28-0.11-12.42 0.67-16.5 0.68-3.57 2.68-9.65 4.44-13.5 2.33-5.11 5.21-9.05 10.66-14.61 5.71-5.82 9.22-8.44 14.96-11.15 4.12-1.95 9.86-4.04 12.75-4.64 2.89-0.61 9.07-1.1 13.75-1.1 4.67 0 10.86 0.49 13.75 1.09 2.89 0.59 8.74 2.84 13 5 7.69 3.88 7.75 3.89 8.24 1.66 0.26-1.24 0.4-12.8 0.1-49.15l3.4-3.3c3.08-3 3.95-3.3 9.45-3.3zm-67.44 81.2c-1.93 1.95-4.85 5.97-6.5 8.93-2.78 4.97-3 6.12-3 15.37 0 8.84 0.31 10.58 2.61 15 1.44 2.75 4.81 6.94 7.5 9.31 3.4 2.99 6.88 4.91 11.39 6.27 3.57 1.08 8.75 1.96 11.5 1.95 2.75-0.01 7.92-1 11.5-2.21 4.22-1.43 8.04-3.62 10.9-6.26 2.42-2.23 5.46-6.31 6.74-9.06 1.94-4.14 2.34-6.63 2.34-14.5 0-7.83-0.41-10.38-2.32-14.5-1.34-2.89-4.39-6.82-7.24-9.31-2.71-2.37-6.95-5.29-9.42-6.5-3.4-1.65-6.71-2.26-13.5-2.48-7.75-0.25-9.7 0.04-14 2.07-2.75 1.3-6.58 3.96-8.5 5.92zm416.25-64.18c2.06-0.01 5.32 0.66 7.25 1.48q3.5 1.5 5 5c1.06 2.46 1.5 7.06 1.5 27.5h13c9.56 0 13.79 0.4 16 1.5 1.65 0.82 3.45 2.4 4 3.5 0.55 1.1 1 3.8 1 6 0 2.2-0.45 5.13-1 6.5-0.55 1.38-2.57 3.17-4.5 4-2.49 1.07-7.11 1.5-28.5 1.5l0.62 28.25c0.39 17.55 1.05 29.18 1.75 30.7 0.62 1.35 2.7 3.34 4.63 4.42 2.57 1.45 6.2 2.13 13.72 2.55 8.89 0.5 10.52 0.88 12.5 2.87 1.6 1.61 2.43 3.87 2.78 7.62 0.47 5.05 0.31 5.52-3 8.84-2.92 2.93-4.49 3.64-9.5 4.27-3.3 0.42-10.05 0.46-15 0.1-6.44-0.48-10.56-1.38-14.5-3.19-3.03-1.39-7.64-4.64-10.25-7.23-2.63-2.6-5.98-7.38-10.25-16.7l-0.35-55c-0.3-46.84-0.14-55.45 1.11-58 0.81-1.65 3-3.78 4.86-4.73 1.86-0.95 5.07-1.73 7.13-1.75zm-629.25 31.1c6.13-0.05 13.1 0.53 16.75 1.39 3.44 0.82 8.84 2.72 12 4.23 3.16 1.5 7.88 4.76 10.48 7.25 3.97 3.79 4.73 5.11 4.75 8.26 0.01 2.06-0.59 4.99-1.35 6.5-0.75 1.51-2.77 3.99-4.5 5.5-2.04 1.8-4.26 2.75-6.38 2.75-2.13-0.01-5.32-1.39-9.25-4.02-3.3-2.21-8.25-4.69-11-5.51-2.75-0.82-7.81-1.49-11.25-1.48-3.68 0.01-8.41 0.81-11.5 1.94-3.79 1.4-6.85 3.62-11 8-4.49 4.74-6.11 7.33-7.38 11.82-1.19 4.17-1.46 7.68-1.01 12.75 0.37 4.06 1.62 9.1 2.98 12 1.29 2.75 4.33 6.98 6.75 9.4 2.43 2.43 6.43 5.3 8.91 6.39 2.51 1.1 7.82 2.21 12 2.5 5.44 0.38 8.94 0.07 12.75-1.13 2.89-0.91 7.61-3.19 10.5-5.06 2.89-1.87 6.37-3.71 7.75-4.09q2.5-0.7 6.75 1.4c2.34 1.15 5.36 3.55 6.72 5.34 1.43 1.88 2.49 4.62 2.5 6.5 0.02 2.52-1.04 4.4-4.72 8.33-3.04 3.26-7.45 6.44-12.25 8.85-4.59 2.3-10.41 4.26-15 5.05-4.88 0.84-11.08 1.07-17.75 0.65-5.64-0.34-12.39-1.35-15-2.24-2.61-0.88-7.19-2.8-10.17-4.25-2.98-1.45-8.61-5.63-12.5-9.28-3.89-3.65-8.66-9.26-10.58-12.46-1.93-3.21-4.5-8.77-5.72-12.37-1.73-5.08-2.24-8.86-2.26-17.03-0.02-6.24 0.58-12.84 1.47-16.25 0.83-3.16 2.58-7.89 3.89-10.5 1.31-2.61 4.24-7.11 6.5-10 2.27-2.89 6.71-7.27 9.87-9.74 3.16-2.47 8.9-5.65 12.75-7.06 3.85-1.41 8.57-2.95 10.5-3.41 1.92-0.46 8.22-0.87 14-0.92zm106.5 0c5.5-0.06 12.47 0.28 15.5 0.76 3.02 0.48 9.55 2.76 14.5 5.08 7.11 3.33 10.37 5.61 15.54 10.88 3.91 3.99 7.99 9.47 10.16 13.66 1.99 3.85 4.39 9.7 5.34 13 1.33 4.65 1.61 8.48 1.24 17-0.39 9.07-0.98 12.29-3.38 18.33-1.59 4.04-5.15 10.32-7.9 13.97-2.75 3.66-7.25 8.35-10 10.44-2.75 2.09-7.7 5.09-11 6.66-3.3 1.58-7.8 3.37-10 4-2.2 0.62-8.73 1.42-14.5 1.77-8.33 0.5-12.05 0.27-18-1.16-4.13-0.99-10.54-3.31-14.25-5.15-4.59-2.29-9.24-5.84-14.54-11.11-5.32-5.29-8.8-9.81-10.99-14.25-1.76-3.58-3.93-9.42-4.83-13-1.2-4.79-1.5-9.27-1.15-17 0.38-8.22 1.07-12.02 3.19-17.5 1.49-3.85 4.63-9.7 6.98-13 2.35-3.3 6.26-7.72 8.68-9.82 2.43-2.1 8.01-5.6 12.41-7.77 4.4-2.18 10.02-4.35 12.5-4.82 2.47-0.48 9-0.92 14.5-0.97zm-20.25 33.24c-2.69 2.46-5.83 6.7-7.24 9.75-2.07 4.47-2.49 6.92-2.5 14.39-0.01 7.69 0.37 9.8 2.64 14.5 1.46 3.03 4.6 7.2 7 9.29 2.39 2.09 6.15 4.69 8.35 5.77 2.29 1.13 7.21 2.24 11.5 2.59 5.37 0.44 9.06 0.18 13-0.94 3.02-0.85 7.52-3.06 10-4.91 2.47-1.85 5.88-5.38 7.56-7.83 2.08-3.02 3.46-6.73 4.29-11.47 0.92-5.28 0.95-8.48 0.11-13-0.61-3.3-2.15-7.8-3.42-10-1.28-2.2-4.51-6.07-7.18-8.61-3.37-3.19-6.55-5.11-10.36-6.26-3.07-0.92-8.82-1.64-13-1.62-5.32 0.02-8.74 0.61-11.75 2.01-2.34 1.09-6.39 3.94-9 6.34zm271.75-33.33c5.22-0.01 12.42 0.44 16 0.99 3.76 0.59 9.87 2.65 14.5 4.89 5.31 2.57 10.02 5.85 14 9.73 3.68 3.6 7.4 8.57 9.62 12.86 1.98 3.85 4.09 9.02 4.68 11.5 0.59 2.48 1.38 7.2 1.77 10.5 0.41 3.55 0.25 7.43-0.39 9.5-0.59 1.93-1.84 4.18-2.78 5-1.44 1.27-8.34 1.58-86.45 2.5l2.45 5c1.35 2.75 4.63 7 7.28 9.45 2.65 2.45 6.84 5.33 9.32 6.41 2.58 1.13 7.71 2.16 12 2.43 4.53 0.28 9.68-0.08 13-0.9 3.11-0.76 8.65-3.42 12.75-6.12 5.17-3.4 8.25-4.77 10.75-4.77 1.92 0 4.85 0.67 6.5 1.5 1.65 0.83 3.92 2.74 5.03 4.25 1.22 1.65 2.03 4.25 2 6.5-0.02 2.91-0.87 4.67-3.78 7.86-2.06 2.26-6.45 5.89-9.75 8.07-3.3 2.17-9.15 4.91-13 6.07-5.63 1.71-9.64 2.12-20.5 2.14-8 0-15.33-0.51-18-1.27-2.48-0.7-7.88-2.9-12-4.87-5.58-2.67-9.43-5.53-15.06-11.17-5.12-5.12-8.59-9.69-10.73-14.08-1.74-3.58-3.85-9.2-4.69-12.5-0.84-3.3-1.52-9.15-1.51-13 0.01-3.85 0.71-9.93 1.55-13.5 0.85-3.57 3.05-9.65 4.91-13.5 1.86-3.85 5.81-9.7 8.78-13 2.97-3.3 7.83-7.57 10.8-9.5 2.96-1.93 9-4.73 13.42-6.23 6.5-2.21 9.84-2.73 17.53-2.74zm-12.5 27.73c-2.2 1.11-5.91 4.08-8.25 6.62-2.34 2.54-4.81 5.74-5.5 7.11-0.69 1.37-1.03 2.72-0.75 3.01 0.27 0.28 7.02 0.8 15 1.15 7.97 0.34 21.59 0.34 30.25-0.01l15.75-0.64c-2.59-5.04-5.4-8.67-7.92-11.31-2.52-2.65-6.38-5.68-8.58-6.72-2.2-1.05-7.14-2.12-11-2.39-3.85-0.26-8.8-0.11-11 0.35-2.2 0.46-5.8 1.73-8 2.83zm203.5-27.37c10.56 0.29 14.92 0.85 20 2.56 3.57 1.21 9.37 4.08 12.89 6.37 3.51 2.3 8.04 5.98 10.05 8.18 2.02 2.2 5.31 6.93 7.31 10.5 2 3.57 4.35 9.2 5.2 12.5 1.25 4.82 1.56 12.22 1.55 69.5l-2.45 2.5c-2.16 2.2-3.31 2.5-9.5 2.5-6.5 0-7.28-0.23-10.05-3-2-2-3-4-3-9l-5.75 3.95c-3.16 2.17-8.45 4.9-11.75 6.07-3.74 1.32-9.58 2.32-15.5 2.65-6.67 0.37-11.74 0.05-17-1.06-4.13-0.88-10.43-3.05-14-4.82-3.58-1.78-9.2-5.78-12.5-8.91-3.3-3.12-7.46-8.09-9.24-11.03-1.78-2.94-4.36-8.5-5.73-12.35-2.1-5.91-2.49-8.79-2.48-18.5 0-6.32 0.46-13.52 1.02-16 0.57-2.48 2.69-7.87 4.72-12 2.47-5.01 5.85-9.69 10.2-14.12 4.4-4.47 8.86-7.79 13.76-10.25 3.99-2 9.84-4.3 13-5.11 4.14-1.07 9.54-1.39 19.25-1.13zm-17 27.26c-2.47 1.12-6.5 4.25-8.95 6.95-2.45 2.69-5.36 6.92-6.47 9.4-1.58 3.52-2 6.46-1.92 13.5 0.07 6.48 0.64 10.26 2.03 13.5 1.06 2.48 3.7 6.45 5.87 8.83 2.17 2.39 6.64 5.66 9.94 7.27 5.29 2.59 7.07 2.94 15 2.94 8.19 0 9.58-0.3 15.44-3.27 3.64-1.85 7.89-5.01 9.79-7.27 1.84-2.2 4.27-6.48 5.4-9.5 1.66-4.41 1.98-7.18 1.67-14-0.33-7.09-0.89-9.39-3.35-13.87-1.62-2.96-4.75-7.04-6.95-9.07-2.2-2.03-6.47-4.61-9.5-5.74-3.03-1.12-7.53-2.25-10-2.52-2.47-0.26-6.53-0.19-9 0.16-2.47 0.36-6.53 1.56-9 2.69zm-54.75-27.57c5.04-0.05 8.8 0.44 10.75 1.42 1.65 0.82 3.67 2.85 4.5 4.5 0.82 1.65 1.49 4.46 1.47 6.25-0.02 1.79-1.03 4.96-2.25 7.05-1.6 2.74-3.19 4.04-5.72 4.67-1.93 0.49-6.76 1.37-10.75 1.96-3.99 0.59-8.26 1.57-9.5 2.19-1.24 0.62-3.53 2.31-5.09 3.75-1.56 1.45-3.56 3.98-4.44 5.63-1.35 2.52-1.65 7.99-1.94 34.5-0.19 17.33-0.55 32.96-0.81 34.75-0.26 1.82-1.68 4.37-3.22 5.78-2.32 2.14-3.68 2.53-8.75 2.49-4.9-0.04-6.69-0.55-13.58-5.52l0.03-34.5c0.03-27.42 0.35-35.68 1.54-40.25 0.83-3.16 2.57-7.89 3.87-10.5 1.3-2.61 4.57-7 7.25-9.76 2.69-2.75 7.59-6.44 10.89-8.2 3.3-1.75 8.7-3.85 12-4.65 3.3-0.81 9.49-1.51 13.75-1.56z"/>
	<path id="icon vector" class="s1" d="m309.75 367.73c-2.07 0.27-7.47 1.16-12 1.96-4.54 0.81-10.73 2.18-13.75 3.04-3.02 0.87-9.1 3.2-13.5 5.18-4.4 1.98-10.7 5.13-14 7.01-3.3 1.88-7.78 4.81-9.97 6.5-2.18 1.69-6.53 5.33-9.67 8.08-3.13 2.75-8.34 8.15-11.56 12-3.23 3.85-8.44 11.27-11.58 16.5-3.14 5.23-7.03 12.87-8.65 17-1.63 4.12-3.98 11.55-5.23 16.5-1.99 7.91-3.68 11.07-3.71 29.52-0.03 19.73 1.53 22.08 4.07 31.48 1.48 5.5 4.41 14.27 6.52 19.5 2.1 5.23 6.06 13.25 8.8 17.83 2.74 4.59 8.38 12.24 12.53 17 4.15 4.77 10.9 11.43 15 14.8 4.1 3.38 10.83 8.13 14.95 10.57 4.13 2.44 11.77 6.27 17 8.52 5.23 2.24 13.32 5.11 18 6.37 7.32 1.98 10.73 3.41 25.81 3.43 10.86 0.01 19.97-1.6 23.69-2.42 3.3-0.72 9.49-2.39 13.75-3.71 4.26-1.31 7.94-2.73 8.17-3.14 0.23-0.41-0.39-3.23-1.38-6.25-1.34-4.07-1.58-6.41-0.93-9 0.48-1.92 1.67-4.33 2.64-5.35 0.96-1.02 3.55-2.91 5.75-4.2 2.2-1.29 6.7-3.04 10-3.89 4.64-1.19 6.91-1.3 10-0.49 2.2 0.58 4.79 1.25 5.75 1.49 1.28 0.32 1.75-0.17 1.76-1.81 0.01-1.24-1.09-4.5-2.43-7.25-1.35-2.75-4.96-7.36-8.02-10.25-3.06-2.89-7.47-6.11-9.81-7.17-2.34-1.05-6.39-2.18-9-2.5-3.44-0.42-4.76-0.23-4.78 0.67-0.02 0.69 0.93 2.15 2.1 3.25 1.18 1.1 2.77 3.24 3.53 4.75 0.77 1.51 1.4 4.55 1.4 6.75 0 3.15-0.69 4.72-3.25 7.38-2.5 2.61-4.4 3.55-8.25 4.1-3.89 0.56-5.87 0.31-8.9-1.13-2.64-1.25-5.19-3.79-7.9-7.85-2.2-3.3-5.17-7-6.6-8.23-1.43-1.23-4.29-2.69-6.35-3.25-2.52-0.69-5.06-0.69-7.75-0.02-2.29 0.57-4.43 1.86-5 3-0.55 1.1-0.99 3.69-0.97 5.75 0.03 3.05 0.77 4.45 4 7.5l3.97 3.75c-5.81-2.37-8.62-3.86-10-4.85-1.37-0.99-4.16-4.24-6.18-7.22-2.03-2.99-4.17-5.54-4.75-5.68-0.59-0.14-1.07 1.1-1.07 2.75 0 1.65 0.9 4.8 2 7 1.1 2.2 1.55 4 1 4-0.55 0-1.85-1.24-2.89-2.75-1.04-1.51-2.39-4.66-3-7-0.81-3.11-0.81-5.39 0.01-8.5 0.67-2.58 2.59-5.72 4.88-8 3.49-3.48 4.19-3.75 9.63-3.75 3.58 0 8.3 0.88 12.1 2.25 5.94 2.15 6.3 2.17 8 0.49 1.6-1.59 1.65-2.34 0.51-8-0.7-3.51-2.45-7.94-4-10.13-1.51-2.14-5.44-6.37-8.74-9.4-3.3-3.02-8.25-6.78-11-8.35-2.75-1.56-7.48-3.62-10.5-4.57-4.3-1.34-8.6-1.67-19.75-1.5-12.27 0.18-14.77-0.05-18-1.68-2.06-1.05-4.65-2.91-5.75-4.15-1.1-1.24-4.25-3.24-7-4.45-2.75-1.21-6.05-3.51-7.33-5.1-1.88-2.35-2.26-3.87-2-7.91l0.33-5c-5.7-0.55-7.65-0.09-8.75 0.91-0.96 0.87-1.75 2.49-1.75 3.59 0 1.1-0.34 2.01-0.75 2.02-0.41 0.01-2.24-1.45-4.06-3.25-2.01-1.98-3.19-4.05-3-5.24 0.23-1.46 1.85-2.41 6.31-3.67 3.3-0.94 10.05-2.83 15-4.21 4.95-1.37 16.76-6.13 26.25-10.57 9.49-4.45 20.74-9.25 25-10.68 4.26-1.43 12.7-3.29 18.75-4.14l11-1.54c0.31-12.12 0.81-13.87 3.17-17.13 1.56-2.15 4.63-4.82 6.83-5.94 2.2-1.11 5.8-2.23 8-2.49 3.14-0.36 4.48 0 6.25 1.69 1.24 1.18 2.26 2.49 2.26 2.9 0.01 0.41-1.45 2.94-3.25 5.61-1.79 2.68-4.73 7.18-6.52 10-1.79 2.83-3.26 5.93-3.25 6.89 0.01 1.21 0.55 1.58 1.76 1.2 0.96-0.3 4.68-3.03 8.25-6.07 3.57-3.03 9.88-7.77 14-10.52 4.13-2.75 8.63-5.26 10-5.58 1.63-0.37 4.03 0.26 6.88 1.82 2.4 1.32 4.99 3.64 5.75 5.15 0.75 1.51 1.37 4.89 1.36 7.5-0.01 3.36-0.84 6.21-2.84 9.75-1.56 2.75-4.82 6.63-7.24 8.62-2.43 1.99-6.99 5.36-10.14 7.5-3.15 2.13-5.57 4.11-5.37 4.38 0.21 0.27 3.01 1.12 6.24 1.88 3.22 0.76 9.91 2.92 14.86 4.8 4.95 1.88 13.27 5.85 18.5 8.82 5.23 2.97 13.77 8.98 19 13.35 5.23 4.38 11.76 10.59 14.53 13.81 2.77 3.21 7.04 8.64 9.5 12.06 2.46 3.42 4.81 6.23 5.22 6.25 0.41 0.02 0.98-1.43 1.27-3.22 0.28-1.79 0.52-10.67 0.52-19.75-0.01-9.08-0.42-18.98-0.93-22-0.51-3.02-1.86-9.1-2.99-13.5-1.14-4.4-3.46-11.6-5.15-16-1.7-4.4-5.15-11.83-7.67-16.5-2.51-4.68-6.24-10.98-8.28-14-2.04-3.02-7.71-9.72-12.61-14.89-4.9-5.16-12.34-12.13-16.54-15.5-4.19-3.36-12.07-8.44-17.5-11.29-5.43-2.85-13.47-6.38-17.87-7.85-4.4-1.46-12.05-3.49-17-4.49-4.95-1.01-13.73-2.04-19.5-2.29-5.77-0.25-12.19-0.23-14.25 0.04z"/>
</svg>