<svg xmlns="http://www.w3.org/2000/svg" viewBox="0 0 24 24" fill="none" width="100%" height="100%">
  <path d="M12.0152 0C11.6644 6.75704 6.75704 11.6644 0 12.0152C6.75704 12.366 11.6644 17.2734 12.0152 24C12.366 17.2734 17.2734 12.366 24 12.0152C17.2734 11.6644 12.366 6.75704 12.0152 0Z" fill="#1A73E8"/>
  <path d="M20.67 3.51c-.24 2.37-2.14 4.27-4.51 4.51 2.37.24 4.27 2.14 4.51 4.51.24-2.37 2.14-4.27 4.51-4.51-2.37-.24-4.27-2.14-4.51-4.51z" fill="#EA4335"/>
  <path d="M4 18c-.14 1.4-1.26 2.52-2.66 2.66 1.4.14 2.52 1.26 2.66 2.66.14-1.4 1.26-2.52 2.66-2.66C5.26 20.52 4.14 19.4 4 18z" fill="#FBBC04"/>
</svg>
